<?xml version="1.0" standalone="no"?>
<!DOCTYPE svg PUBLIC "-//W3C//DTD SVG 20010904//EN"
 "http://www.w3.org/TR/2001/REC-SVG-20010904/DTD/svg10.dtd">
<svg version="1.0" xmlns="http://www.w3.org/2000/svg"
 width="1400.000000pt" height="1400.000000pt" viewBox="0 0 1400.000000 1400.000000"
 preserveAspectRatio="xMidYMid meet">
<metadata>
Created by potrace 1.14, written by Peter Selinger 2001-2017
</metadata>
<g transform="translate(0.000000,1400.000000) scale(0.100000,-0.100000)"
fill="#000000" stroke="none">
<path d="M11628 12742 c-75 -92 -148 -180 -162 -197 -56 -68 -241 -293 -270
-329 -17 -21 -36 -43 -41 -50 -6 -6 -51 -60 -100 -121 -50 -60 -137 -166 -193
-235 -57 -69 -119 -143 -137 -165 -18 -22 -59 -72 -91 -111 -33 -39 -75 -90
-94 -114 -19 -24 -51 -63 -70 -86 -19 -23 -42 -50 -50 -60 -21 -26 -150 -183
-176 -214 -12 -14 -98 -117 -190 -230 -93 -113 -187 -227 -209 -254 -93 -113
-87 -101 -66 -120 17 -15 22 -11 102 86 46 57 91 112 100 123 10 11 75 90 145
175 70 85 150 182 178 216 28 33 66 79 84 102 19 22 41 50 50 61 10 10 62 74
117 141 55 68 212 258 348 424 312 378 282 342 491 596 98 118 201 244 229
279 29 34 64 77 78 95 109 129 110 130 92 144 -9 6 -19 12 -22 12 -3 0 -68
-76 -143 -168z"/>
<path d="M8424 12398 c-32 -40 -68 -84 -80 -98 -12 -14 -90 -108 -174 -210
-83 -102 -166 -203 -184 -225 -280 -339 -390 -473 -404 -490 -10 -11 -89 -108
-177 -215 -88 -107 -170 -206 -181 -220 -12 -14 -120 -144 -240 -290 -241
-294 -346 -421 -408 -494 -104 -125 -107 -130 -89 -144 10 -7 20 -11 24 -10 3
2 82 95 174 208 93 113 198 241 235 285 36 44 113 136 169 205 57 69 115 139
130 157 14 17 62 75 106 129 44 53 125 151 180 218 55 67 129 157 164 201 36
44 72 87 80 96 9 9 27 31 41 49 14 18 30 38 35 44 6 6 42 49 80 96 38 47 72
87 75 90 3 3 32 39 65 80 33 41 62 77 65 80 5 4 158 190 349 423 9 11 21 24
26 31 34 39 35 43 16 60 -17 16 -21 13 -77 -56z"/>
<path d="M12325 9793 c-60 -74 -115 -141 -120 -147 -6 -6 -28 -33 -50 -61 -22
-27 -43 -52 -46 -55 -3 -3 -68 -81 -144 -175 -77 -93 -191 -233 -255 -310
-151 -182 -453 -549 -495 -600 -40 -48 -203 -246 -338 -410 -54 -66 -114 -138
-131 -160 -28 -34 -113 -137 -277 -336 -37 -44 -38 -47 -20 -63 17 -16 23 -10
122 110 57 70 109 132 114 138 6 6 60 72 121 146 158 194 452 551 477 580 12
14 60 72 107 130 47 58 95 116 107 130 12 14 68 82 126 152 57 70 120 147 140
170 43 52 376 457 421 511 17 22 39 49 50 60 10 12 30 38 45 57 14 19 31 40
37 45 6 6 28 33 50 60 21 28 42 52 46 55 3 3 20 23 37 44 24 30 29 42 20 52
-6 8 -17 14 -23 13 -6 0 -60 -61 -121 -136z"/>
<path d="M8300 9269 c-168 -72 -321 -136 -340 -143 -19 -7 -224 -93 -455 -190
-231 -97 -485 -204 -565 -237 -80 -33 -154 -64 -165 -69 -11 -5 -78 -34 -150
-64 -206 -86 -510 -213 -635 -266 -63 -27 -138 -58 -167 -69 l-52 -20 -73 30
c-40 17 -102 45 -138 62 -36 16 -99 44 -140 62 -81 35 -192 88 -418 196 -79
38 -145 69 -147 69 -2 0 -96 45 -210 100 -114 55 -208 100 -210 100 -2 0 -78
36 -170 80 -92 44 -168 80 -170 80 -1 0 -54 24 -116 54 -285 134 -597 264
-710 296 -39 10 -79 22 -90 25 -16 5 -18 1 -14 -37 5 -56 13 -186 20 -318 3
-58 8 -134 10 -170 3 -36 7 -94 10 -130 7 -93 15 -198 20 -250 2 -25 7 -79 10
-120 3 -41 8 -95 10 -120 2 -25 7 -88 10 -140 3 -52 8 -115 10 -140 3 -25 7
-88 11 -140 3 -52 7 -111 9 -130 2 -19 6 -80 9 -135 4 -55 9 -127 11 -160 3
-33 7 -91 10 -130 3 -38 7 -101 10 -140 3 -38 8 -97 10 -130 l5 -60 -43 -2
c-121 -7 -273 -87 -353 -187 -35 -43 -87 -128 -89 -146 0 -3 -3 -9 -6 -15 -4
-5 -12 -40 -19 -78 -14 -79 -8 -200 14 -272 21 -68 82 -166 138 -223 l47 -47
-71 -75 c-39 -41 -139 -147 -222 -234 -83 -88 -169 -178 -191 -201 -22 -23
-94 -100 -160 -170 -66 -70 -138 -147 -160 -170 -22 -24 -67 -72 -100 -107
-33 -35 -103 -110 -155 -168 -52 -57 -102 -111 -110 -119 -8 -9 -44 -50 -79
-91 -35 -41 -67 -77 -71 -80 -23 -17 -156 -193 -173 -228 l-22 -43 24 -18 c13
-10 63 -31 110 -46 47 -14 97 -30 111 -35 14 -5 117 -32 230 -60 210 -53 227
-57 270 -66 14 -3 72 -16 130 -30 58 -14 139 -32 180 -40 41 -9 82 -18 90 -20
8 -2 65 -14 125 -28 112 -25 146 -33 600 -131 143 -32 267 -58 275 -60 38 -9
214 -47 297 -65 121 -26 391 -95 425 -108 44 -18 131 -161 423 -702 76 -140
145 -266 154 -280 8 -14 16 -27 16 -30 0 -3 3 -9 6 -15 4 -5 61 -110 128 -233
67 -122 132 -242 145 -265 185 -332 233 -418 253 -449 12 -21 23 -40 23 -42 0
-9 181 -300 225 -361 23 -33 51 -68 62 -77 17 -16 21 -16 41 -2 56 39 256 342
517 784 53 91 106 177 116 192 11 15 19 29 19 32 0 2 28 51 62 108 58 97 231
395 327 561 35 62 141 242 151 257 5 8 34 58 65 110 30 52 60 102 65 110 5 8
35 58 66 110 85 141 139 223 160 242 22 19 164 57 314 84 22 4 63 12 150 29
86 17 416 79 470 89 27 4 448 83 490 91 14 3 48 9 75 15 28 5 66 12 85 15 19
3 42 8 50 10 8 2 26 6 40 9 34 6 140 25 168 31 54 10 383 76 404 81 13 3 34 7
48 10 215 44 460 115 480 139 16 20 5 48 -53 129 -43 62 -192 250 -222 282 -5
6 -19 22 -30 35 -33 40 -129 153 -140 165 -5 6 -32 37 -60 69 -27 32 -88 102
-135 154 -47 53 -114 130 -150 171 -36 40 -74 84 -85 96 -11 12 -33 37 -50 56
-29 32 -180 202 -200 224 -5 6 -26 29 -45 50 -103 113 -437 491 -443 501 -4 7
8 33 29 60 106 138 136 322 81 494 -42 133 -147 260 -257 311 l-50 23 5 65 c4
36 8 79 10 95 4 32 12 108 20 190 3 28 7 66 10 85 3 19 7 60 10 90 8 92 17
174 20 190 2 9 6 47 9 85 4 39 9 86 11 105 2 19 7 60 10 90 3 30 8 71 10 90 5
50 17 161 20 190 3 27 13 125 20 180 2 19 7 62 10 95 3 33 10 98 16 145 5 47
12 108 14 135 3 28 7 66 10 85 4 34 10 92 20 200 3 30 7 64 9 75 10 51 17 185
9 184 -4 0 -145 -59 -313 -130z"/>
</g>
</svg>
